<svg width="32" height="32" version="1.1" viewBox="0 0 32 32" xmlns="http://www.w3.org/2000/svg">
	<circle transform="rotate(-45)" cx="1.6167e-5" cy="22.627" r="16" fill-rule="evenodd"/>
	<path d="m20.422 1.6777-3.7148 3.7148 7.0703 7.0723c0.78105 0.78105 0.78105 2.0471 0 2.8281-0.78105 0.78105-2.0471 0.78105-2.8281 0l-7.0703-7.0703-5.6562 5.6562 7.0703 7.0703c0.78105 0.78105 0.78105 2.0471 0 2.8281-0.78105 0.78105-2.0471 0.78105-2.8281 0l-7.0723-7.0703-3.7148 3.7148a15 15 45 0 0 3.7148 6.1855 15 15 45 0 0 14.234 3.9277c0.46254-0.32612 0.90844-0.68579 1.3223-1.0996 1.5945-1.5945 2.5279-3.5948 2.8203-5.668 2.0717-0.2931 4.0726-1.2249 5.666-2.8184 0.4162-0.4162 0.77798-0.86464 1.1055-1.3301a15 15 45 0 0-3.9336-14.227 15 15 45 0 0-6.1855-3.7148z" fill="#e8ac00"/>
</svg>
